<svg xmlns="http://www.w3.org/2000/svg" width="24" height="24" fill="#FFFFFF" viewBox="0 0 1043.63 592.71">
  <g data-name="Layer 2">
    <path d="M588.67 296.14c0 163.55-131.98 296.14-294.34 296.14S0 459.69 0 296.14 131.98 0 294.33 0s294.34 132.59 294.34 296.14zM841.25 296.14c0 145.57-64.69 263.47-144.52 263.47s-144.51-117.9-144.51-263.47 64.68-263.47 144.51-263.47 144.52 117.9 144.52 263.47zM1043.63 296.14c0 134.33-28.93 243.17-64.61 243.17s-64.62-108.84-64.62-243.17S943.34 52.97 979.02 52.97s64.61 108.84 64.61 243.17z"></path>
  </g>
</svg>
